<svg width="252" height="28" viewBox="0 0 252 28" fill="none" xmlns="http://www.w3.org/2000/svg">
<path d="M21.9118 2.58768C21.9118 2.52133 21.9484 2.38863 21.9851 2.38863C21.9851 2.38863 22.1317 2.38863 22.2784 2.45498L22.4617 2.18957L22.535 2.05687C22.6083 2.12322 22.755 2.12322 22.865 2.12322C22.9749 2.12322 23.3049 1.79147 23.3416 1.85782V1.99052C23.3416 2.12322 23.4515 2.12322 23.5982 2.05687C23.7082 1.99052 24.2214 2.12322 24.3681 2.12322C24.5147 2.12322 24.9547 1.85782 25.0647 1.85782C25.1747 1.85782 25.3946 2.05687 25.4679 2.05687C25.5413 2.05687 25.7612 1.85782 25.7979 1.85782C25.8346 1.85782 25.9812 1.85782 25.9812 1.72512C25.9812 1.59242 26.2745 1.79147 26.3478 1.79147L26.4212 1.72512C26.5678 1.59242 26.6045 1.65877 26.6411 1.85782L26.6778 1.99052C26.7878 1.79147 26.8978 1.65877 26.9711 1.72512C27.0444 1.79147 27.301 1.79147 27.4477 1.79147L27.5577 1.65877L27.631 1.59242C27.7043 1.59242 27.851 1.65877 27.9243 1.65877L27.8876 1.85782C27.9609 1.92417 27.9976 2.05687 28.0709 2.18957C28.1443 2.12322 28.1809 2.05687 28.1809 1.92417C28.1809 1.85782 28.3642 1.72512 28.5109 1.65877L28.6209 1.79147V1.85782C28.7675 1.99052 28.9142 1.99052 28.9875 1.85782L29.0608 1.79147L29.0975 1.72512C29.1708 1.72512 29.2074 1.79147 29.2074 1.85782V1.99052C29.2074 2.05687 29.2441 2.05687 29.3174 2.05687L29.3541 2.12322C29.3908 2.05687 29.4274 1.92417 29.4641 1.85782L29.5374 1.72512C29.6107 1.79147 29.7207 1.79147 29.7574 1.79147C29.794 1.79147 30.0507 1.79147 30.234 2.05687L30.4906 1.79147C30.5273 1.72512 30.6373 1.79147 30.6373 1.79147L30.7472 2.05687C30.8939 1.92417 31.0405 1.79147 31.0772 1.72512C31.1139 1.65877 31.2605 1.52607 31.2972 1.59242C31.3338 1.72512 31.4805 1.92417 31.5905 1.79147H31.6638L31.8104 1.72512C31.9937 1.72512 32.1404 1.72512 32.1771 1.65877C32.2137 1.65877 32.3604 1.59242 32.4703 1.52607C32.5803 1.45972 32.9836 1.72512 33.0203 1.65877L33.0569 1.59242C33.1303 1.59242 33.1669 1.59242 33.1303 1.72512V1.79147C33.1303 1.85782 33.2036 1.92417 33.2402 1.92417L33.3502 2.05687C33.3502 1.92417 33.3869 1.79147 33.4236 1.72512C33.4602 1.65877 33.6435 1.52607 33.8268 1.59242L33.9735 1.65877H34.0101C34.0468 1.72512 34.0468 1.79147 34.0468 1.79147C34.0468 1.79147 33.9735 1.92417 33.9368 2.12322C33.9002 2.32227 33.4969 2.25592 33.4602 2.25592V2.38863C33.4602 2.45498 33.6435 2.65403 33.8268 2.78673L34.0468 2.58768L34.1201 2.45498C34.2301 2.38863 34.2301 2.32227 34.1201 2.25592C34.0101 2.18957 34.1568 1.65877 34.2668 1.52607H34.4134C34.6701 1.52607 34.9267 1.65877 35.1833 1.45972C35.2566 1.39336 35.4033 1.45972 35.4766 1.59242L35.5499 1.65877C35.5866 1.85782 35.6233 1.92417 35.6599 1.79147C35.6966 1.65877 35.8799 1.39336 35.9899 1.45972C36.0999 1.45972 36.4665 1.39337 36.5398 1.19431L36.6498 1.32701H36.6865C36.7231 1.39337 36.7598 1.52607 36.8331 1.65877L36.9431 1.52607H36.9797C37.0531 1.52607 37.1264 1.59242 37.1264 1.72512C37.1264 1.79147 37.1997 1.99052 37.2364 1.92417V1.85782C37.2364 1.79147 37.2364 1.72512 37.2364 1.72512C37.273 1.59242 37.3464 1.59242 37.4197 1.65877C37.603 1.85782 37.4564 1.45972 37.5663 1.45972H37.6397C37.713 1.39336 37.8596 1.45972 37.9696 1.52607L38.0796 1.39337C38.1163 1.32701 38.1896 1.32701 38.1896 1.32701L38.4096 1.72512C38.5562 1.39337 38.7395 1.26066 38.8495 1.45972C38.9595 1.59242 39.3628 1.45972 39.4361 1.52607C39.5094 1.59242 39.8394 1.39337 40.0227 1.39337L40.1693 1.26066H40.206C40.2426 1.32701 40.426 1.39336 40.5359 1.45972L40.7559 1.39337L40.9392 1.32701C40.9759 1.52607 41.0492 1.59242 41.1225 1.45972C41.1959 1.39336 41.4891 1.45972 41.5258 1.45972C41.5625 1.45972 41.7091 1.32701 41.8558 1.26066L42.1491 1.39337C42.3324 1.39337 42.479 1.39337 42.5157 1.39337C42.5523 1.45972 42.6257 1.45972 42.6623 1.39337C42.699 1.32701 42.919 1.12796 42.9556 1.19431C42.9923 1.26066 43.1389 1.45972 43.2123 1.52607C43.2856 1.59242 43.5789 1.52607 43.7255 1.39337C43.8722 1.32701 44.2388 1.39337 44.3121 1.39337C44.3854 1.39337 44.6421 1.26066 44.6787 1.32701C44.752 1.39337 44.9354 1.52607 44.972 1.52607H45.0087L45.1187 1.39337C45.2653 1.39337 45.4486 1.45972 45.4853 1.45972C45.5219 1.45972 45.7052 1.39337 45.8152 1.39337C45.9252 1.39337 46.1819 1.39337 46.1819 1.19431L46.4018 1.39337L46.4385 1.45972C46.4751 1.45972 46.5851 1.52607 46.6951 1.52607C46.8051 1.52607 47.1351 1.59242 47.245 1.45972C47.355 1.39336 47.685 1.26066 47.7583 1.26066L47.795 1.32701C47.8683 1.45972 47.9416 1.59242 48.0883 1.52607H48.1983C48.2716 1.39337 48.3449 1.26066 48.3816 1.26066H48.5649C48.7115 1.19431 48.9315 1.12796 49.0415 1.06161L49.1148 1.26066C49.1881 1.45972 49.3348 1.52607 49.4814 1.32701L50.1413 1.19431H50.3246C50.5446 1.19431 50.7646 1.26066 50.8379 1.19431C50.9112 1.19431 51.0945 1.39337 51.0945 1.26066C51.0945 1.12796 51.1679 1.06161 51.2412 1.26066C51.3145 1.45972 51.7544 1.26066 51.9378 1.26066C52.0844 1.26066 52.561 1.12796 52.5977 1.06161L52.8543 1.39337C53.1843 1.32701 53.5142 1.32701 53.5142 1.32701C53.6242 1.19431 53.6975 1.06161 53.8442 1.19431L53.9175 1.26066C54.0641 1.19431 54.2841 1.06161 54.4308 1.06161H54.7241C54.9074 1.06161 55.0907 1.12796 55.1273 1.19431C55.164 1.26066 55.274 1.32701 55.274 1.32701C55.274 1.26066 55.4206 1.12796 55.4939 1.12796C55.6039 1.12796 55.8972 1.06161 55.9706 1.12796V1.45972C56.0805 1.39336 56.3005 1.32701 56.4472 1.26066L56.5938 1.39337C56.6671 1.45972 56.7771 1.45972 56.8138 1.39337C56.9238 1.26066 57.0337 1.26066 57.1804 1.26066H57.2904C57.437 1.19431 57.5837 1.12796 57.6203 1.06161C57.6937 1.06161 57.877 1.19431 57.9869 1.19431C58.0969 1.19431 58.3902 1.12796 58.4636 1.12796C58.5002 1.12796 58.6469 0.995261 58.6835 1.06161C58.7202 1.12796 58.9768 1.39336 59.1601 1.59242L59.1968 1.06161C59.1968 1.06161 59.3068 0.995261 59.3434 1.06161L59.6367 1.26066C59.7834 1.19431 60.1133 1.12796 60.37 1.06161H60.6633C60.6999 1.19431 60.9566 1.26066 61.2498 1.19431H61.5065C61.5798 1.19431 61.5798 1.39336 61.4698 1.45972L61.4332 1.52607C61.3598 1.52607 61.3598 1.59242 61.4332 1.65877C61.5065 1.72512 61.6531 1.72512 61.6531 1.59242C61.6531 1.45972 61.7265 1.06161 61.8364 1.06161C61.9464 1.06161 62.313 1.19431 62.423 1.19431H62.533C62.643 1.19431 62.7896 1.19431 62.8996 1.26066L63.0829 1.39337C63.2662 1.26066 63.4496 1.12796 63.5595 1.06161C63.6329 0.995261 63.7795 1.32701 63.7795 1.32701C63.7795 1.32701 63.8895 1.26066 63.9262 1.19431L63.9995 1.32701C64.1095 1.45972 64.1828 1.45972 64.2195 1.19431V1.12796C64.2928 1.06161 64.4028 1.06161 64.4394 1.19431C64.4761 1.32701 64.7694 1.26066 64.916 1.19431C65.0627 1.19431 65.5026 1.12796 65.5759 1.12796L65.6126 0.995261C65.6126 0.995261 65.7592 0.92891 65.7592 0.995261C65.7959 1.06161 65.7959 1.32701 65.9426 1.19431L66.0159 1.12796C66.0525 0.92891 66.1992 0.862559 66.3458 0.995261L66.4925 1.12796C66.5292 1.12796 66.8958 1.06161 66.9324 1.06161C67.0424 0.92891 67.1524 0.729858 67.1891 1.12796C67.2257 1.12796 67.299 1.19431 67.3724 1.19431C67.4457 1.19431 67.6657 1.26066 67.6657 1.26066C67.7023 1.19431 67.7757 1.06161 67.7757 0.995261C67.7757 0.995261 67.8856 0.862559 67.9956 0.796209C68.1056 0.729858 68.3622 0.92891 68.3989 0.862559C68.3989 0.796209 68.5822 0.796209 68.6189 0.862559C68.6555 0.92891 68.8755 1.12796 68.9488 1.06161C68.9855 0.995261 69.1688 0.862559 69.2055 0.92891C69.2421 0.995261 69.3521 1.06161 69.3888 0.995261C69.3888 0.92891 69.4987 0.796209 69.5721 0.92891H69.792C69.8287 1.06161 69.902 1.12796 69.9754 0.995261C70.012 0.862559 70.1953 0.597156 70.1953 0.663507C70.1953 0.729858 224.834 0.796209 224.87 0.796209C224.944 0.729858 225.09 0.663507 225.127 0.729858V0.796209C225.164 0.995261 225.274 0.995261 225.31 0.862559C225.347 0.530806 225.494 0.530806 225.604 0.663507L225.713 0.796209C225.823 0.729858 226.007 0.663507 226.153 0.597156L226.263 0.796209C226.373 0.995261 226.483 1.06161 226.63 0.862559C226.63 0.862559 226.703 0.862559 226.703 0.92891L226.813 1.12796C226.85 1.06161 226.923 0.92891 226.96 0.796209H227.143C227.327 0.862559 227.473 0.862559 227.51 0.862559C227.547 0.862559 227.657 0.796209 227.73 0.796209C227.803 0.796209 228.06 1.06161 228.17 0.92891C228.243 0.862559 228.536 0.729858 228.573 0.862559C228.61 0.995261 228.94 0.729858 229.123 0.729858C229.27 0.729858 229.673 0.862559 229.673 0.796209C229.673 0.729858 229.746 0.464455 229.783 0.597156V0.729858C229.783 0.796209 229.893 0.862559 230.04 0.862559C230.15 0.862559 230.443 1.06161 230.37 1.12796C230.296 1.19431 229.49 1.26066 229.306 1.32701C229.123 1.39337 229.16 1.52607 229.27 1.52607L229.38 1.59242C229.416 1.52607 229.526 1.39337 229.6 1.32701C229.71 1.26066 229.82 1.72512 229.893 1.72512C229.93 1.72512 230.003 1.59242 229.966 1.45972V1.39337C230.003 1.12796 230.003 1.19431 229.893 1.12796L229.82 0.729858C229.71 0.796209 229.563 0.862559 229.563 0.862559H229.526L229.38 0.995261C229.526 0.92891 229.746 0.995261 229.893 1.12796C230.04 1.26066 230.333 1.32701 230.443 1.26066C230.516 1.19431 230.846 1.32701 230.919 1.26066C230.993 1.19431 230.993 0.92891 230.956 0.862559C230.956 0.862559 230.809 0.729858 230.773 0.729858C230.699 0.729858 230.626 0.663507 230.699 0.597156C230.773 0.530806 231.029 0.265403 231.029 0.265403C231.029 0.199052 231.213 0.265403 231.249 0.265403C231.286 0.265403 231.396 0.530806 231.433 0.597156C231.469 0.729858 231.799 0.92891 231.799 0.995261C231.836 1.06161 231.873 0.796209 231.836 0.729858H231.799L231.689 0.663507C231.579 0.597156 231.506 0.464455 231.543 0.331754V0.265403C231.506 0.199052 231.469 0.0663507 231.579 0.132701L231.726 0.199052C231.909 0.265403 232.129 0.331754 232.203 0.331754C232.313 0.398104 232.753 0.199052 232.789 0.132701C232.863 0.0663507 232.973 0.0663507 233.083 0L233.156 0.0663507H233.193L233.229 0.132701C233.303 0.265403 233.376 0.265403 233.412 0.199052C233.449 0.132701 233.632 0.132701 233.706 0.199052C233.779 0.265403 234.072 0.132701 234.182 0.265403L234.292 0.398104C234.292 0.398104 234.256 0.530806 234.256 0.597156V0.663507C234.256 0.729858 234.292 0.663507 234.329 0.530806C234.366 0.398104 234.622 0.265403 234.586 0.265403C234.586 0.199052 234.622 0.132701 234.696 0.132701C234.769 0.132701 235.099 0.331754 235.246 0.398104C235.392 0.464455 235.796 0.265403 235.796 0.331754C235.796 0.398104 235.905 0.398104 235.869 0.464455C235.869 0.530806 235.759 0.597156 235.722 0.663507C235.686 0.729858 235.795 1.19431 236.015 1.26066L236.089 0.995261L236.162 0.796209C236.052 0.464455 236.052 0.199052 236.199 0.199052L236.235 0.265403C236.309 0.398104 236.345 0.597156 236.492 0.597156C236.492 0.597156 236.492 0.597156 236.492 0.663507C236.529 0.995261 236.529 0.995261 236.749 1.06161H236.859C237.005 1.12796 237.115 1.06161 237.115 0.92891C237.115 0.796209 237.152 0.398104 237.225 0.398104L237.299 0.530806C237.372 0.663507 237.372 0.796209 237.299 0.862559C237.225 0.862559 237.225 1.26066 237.299 1.26066C237.372 1.26066 237.555 1.06161 237.592 1.06161C237.629 1.12796 237.739 1.26066 237.775 1.19431H237.812C237.849 1.12796 237.885 1.06161 237.922 0.995261C237.959 0.92891 238.142 1.19431 238.179 1.12796C238.215 1.06161 238.362 0.862559 238.435 0.92891C238.508 0.995261 238.728 1.06161 238.765 0.995261C238.802 0.92891 238.912 0.796209 238.948 0.862559C238.948 0.92891 239.058 1.19431 239.095 1.19431H239.132L239.388 0.995261C239.608 1.19431 239.828 1.39337 239.865 1.39337C239.902 1.45972 240.012 1.52607 240.012 1.45972C240.012 1.45972 240.048 1.26066 240.048 1.19431C240.048 1.06161 240.268 1.19431 240.342 1.19431C240.415 1.26066 240.562 1.19431 240.562 1.26066C240.562 1.32701 240.781 1.19431 240.818 1.12796C240.891 1.06161 241.148 0.995261 241.221 0.92891L241.258 0.862559C241.295 0.862559 241.331 0.796209 241.331 0.796209L241.551 1.12796C241.588 0.796209 241.698 0.597156 241.808 0.663507C241.918 0.729858 242.101 1.19431 242.101 1.12796C242.101 1.06161 242.138 0.92891 242.175 0.862559C242.248 0.995261 242.358 1.06161 242.431 1.19431C242.468 1.26066 242.395 1.32701 242.395 1.45972V1.52607C242.395 1.59242 242.468 1.72512 242.505 1.72512L242.541 1.65877C242.688 1.45972 242.761 1.52607 242.798 1.79147C242.871 1.79147 242.945 1.72512 242.945 1.65877C242.945 1.59242 242.945 1.39337 242.908 1.39337C242.871 1.39337 242.945 1.12796 243.018 1.12796C243.091 1.12796 243.238 1.45972 243.274 1.65877V1.85782C243.274 1.92417 243.201 2.05687 243.128 2.05687H242.945C242.725 1.99052 242.541 2.05687 242.578 2.12322C242.578 2.25592 242.908 2.32228 242.945 2.38863C242.981 2.52133 243.018 2.72038 243.018 2.78673C243.018 2.85308 242.945 3.11848 242.908 3.25118L242.871 3.38389C242.798 3.51659 242.725 3.64929 242.615 3.71564C242.615 3.71564 242.578 3.58294 242.578 3.45024C242.578 3.31754 242.431 2.91943 242.358 2.98578C242.285 3.05213 242.138 3.31754 242.175 3.38389L242.248 3.51659C242.285 3.58294 242.321 3.64929 242.285 3.64929C242.248 3.71564 242.211 3.84834 242.248 3.91469C242.285 3.98104 242.945 4.11374 242.908 4.1801C242.871 4.1801 242.835 4.3128 242.908 4.24645C243.018 4.24645 243.091 4.5782 243.128 4.5782C243.164 4.5782 243.238 4.51185 243.238 4.51185C243.238 4.4455 243.238 4.37915 243.311 4.4455H243.384C243.568 4.64455 243.641 4.77725 243.568 4.77725C243.494 4.77725 243.274 4.90995 243.274 4.9763C243.274 5.04265 243.348 5.24171 243.421 5.37441C243.494 5.50711 243.788 5.57346 243.788 5.50711C243.788 5.44076 243.934 5.37441 244.044 5.44076C244.118 5.50711 244.301 5.50711 244.264 5.37441C244.228 5.24171 244.484 4.7109 244.594 4.4455H244.888C244.924 4.24645 244.998 4.1801 244.998 4.24645C244.998 4.3128 245.071 4.5782 245.108 4.51185C245.144 4.4455 245.291 4.3128 245.401 4.4455C245.474 4.5782 245.767 4.77725 245.877 4.77725C245.951 4.7109 246.207 4.4455 246.427 4.51185L246.611 4.5782C246.611 4.5782 246.647 4.51185 246.647 4.4455C246.684 4.37915 246.721 4.3128 246.757 4.3128H246.867C246.831 4.4455 246.794 4.64455 246.757 4.7109C246.721 4.77725 246.757 5.17536 246.941 5.30806L247.051 4.90995C247.087 4.8436 247.197 4.77725 247.271 4.7109C247.307 4.7109 247.381 4.77725 247.381 4.8436C247.417 4.90995 247.417 5.04265 247.491 4.90995C247.564 4.8436 247.637 4.77725 247.674 4.90995C247.711 5.04265 247.747 5.17536 247.711 5.24171C247.674 5.44076 247.564 5.57346 247.491 5.70616L247.417 5.83886C247.454 5.97156 247.637 6.17062 247.747 6.30332C247.894 6.36967 248.15 6.43602 248.26 6.43602C248.37 6.43602 248.737 6.83412 248.81 6.96683C248.884 7.09953 249.177 7.16588 249.214 7.23223C249.25 7.29858 249.214 7.56398 249.214 7.82938L249.324 8.09479L249.36 8.16114C249.397 8.29384 249.324 8.42654 249.214 8.49289L249.14 8.62559C249.03 8.82465 249.03 8.82465 248.957 8.69194L248.92 8.62559L248.774 8.69194C248.7 8.891 248.627 8.95735 248.59 8.82465C248.554 8.69194 248.224 8.69194 248.15 8.69194C248.077 8.69194 247.821 8.891 247.931 8.95735C248.041 9.0237 248.26 9.2891 248.224 9.4218L248.334 9.48815L248.48 9.62085C248.59 9.4218 248.664 9.2891 248.664 9.2891C248.664 9.2891 248.737 9.4218 248.81 9.48815C248.884 9.48815 248.81 9.88626 248.7 9.88626L248.554 10.1517C248.48 10.3507 248.48 10.5498 248.517 10.6161C248.554 10.6161 248.59 10.8815 248.48 11.0806C248.37 11.2796 248.114 11.7441 248.15 11.7441C248.187 11.7441 248.26 11.8768 248.224 12.0095H248.114C248.04 12.0758 247.931 12.2085 247.894 12.4076L248.004 12.5403C248.04 12.6066 247.894 13.4028 247.857 13.4028L247.747 13.5355C247.637 13.6682 247.564 13.8009 247.564 13.9337C247.564 14 247.417 14.3318 247.381 14.4645L247.234 14.7299C247.307 14.9289 247.344 15.2607 247.344 15.4597L247.307 15.6588L247.271 15.9242C247.417 15.9242 247.454 16.0569 247.381 16.1232C247.307 16.1896 247.051 16.455 246.941 16.455H246.647C246.537 16.654 246.391 16.7867 246.317 16.8531C246.207 16.5877 246.097 16.9858 245.987 16.8531C245.877 16.7204 245.767 16.7204 245.658 16.654C245.621 16.8531 245.511 16.9194 245.401 16.7867C245.291 16.7204 245.034 16.9194 245.034 16.9194C244.961 16.7867 244.851 16.9194 244.778 16.8531L244.631 16.7204C244.521 16.8531 244.301 16.7867 244.154 16.7204L244.008 16.9194L243.971 16.9858C243.898 16.9858 243.678 16.8531 243.494 16.7204L243.311 16.9194L243.274 16.9858C243.201 16.9858 243.091 16.9858 243.018 16.9858C242.945 16.9858 242.688 16.8531 242.651 16.8531C242.578 16.8531 242.395 16.8531 242.321 16.9194C242.248 16.9858 241.918 16.9194 241.808 16.9194H241.661C241.588 16.9194 241.515 16.9194 241.478 16.8531L241.368 16.7204C241.295 16.7867 241.111 16.9194 240.965 16.9858L240.855 17.0521C240.818 17.0521 240.781 17.1185 240.781 17.1848L240.708 17.3175C240.672 17.1848 240.598 17.1185 240.562 17.1185C240.525 17.1185 240.378 17.4502 240.378 17.7156V18.0474C240.122 18.0474 239.865 18.1137 239.828 18.1137L239.865 18.0474L240.085 17.7156C240.085 17.981 240.122 18.1801 240.195 18.1801C240.268 18.1801 240.268 17.8483 240.268 17.7156C240.268 17.5829 240.158 17.2512 240.122 17.2512C240.085 17.1848 239.938 17.3839 239.865 17.5166C239.792 17.6493 240.195 18.1137 240.488 18.2464L240.562 18.1137L240.672 17.981C240.745 17.7156 240.928 17.5829 241.038 17.6493C241.148 17.7156 241.441 17.981 241.441 17.782L241.478 17.6493V17.5829C241.551 17.5829 241.625 17.5829 241.625 17.6493C241.625 17.7156 241.625 17.8483 241.661 17.8483C241.698 17.8483 241.845 17.9147 241.808 17.981H241.661C241.551 18.1137 241.515 18.3128 241.625 18.3128L241.661 18.2464L241.808 18.0474C241.955 18.0474 242.175 18.1137 242.248 18.1137C242.321 18.1801 242.541 17.9147 242.578 17.9147H242.615L242.688 17.981C242.761 18.0474 242.908 18.1137 243.018 18.0474L243.091 18.1801C243.128 18.2464 243.201 18.1801 243.238 18.1801H243.274C243.311 18.1801 243.348 18.2464 243.348 18.3128V18.4455C243.348 18.5782 243.274 18.7773 243.201 18.9763H242.908C242.688 18.9763 242.725 19.1754 242.981 19.4408H243.348C243.421 19.3081 243.531 19.1754 243.604 19.1754L243.714 19.3744C243.714 19.6398 243.788 19.8389 243.824 19.9716H243.898C243.934 19.9716 243.971 19.8389 243.934 19.7725V19.7062C243.898 19.6398 243.788 19.6398 243.714 19.7062L243.604 19.6398C243.531 19.6398 243.458 19.7725 243.311 19.7062L243.128 19.6398C242.871 19.7062 242.615 19.9716 242.541 20.1043L242.688 20.3697C242.761 20.3697 242.945 20.237 243.091 19.9716L243.311 20.1043L243.678 20.5024L243.861 20.1706C243.788 19.9716 243.751 19.6398 243.788 19.5735C243.824 19.4408 244.044 19.2417 244.154 19.4408L244.191 19.5735C244.228 19.6398 244.191 19.7725 244.154 19.8389L244.118 19.9052C244.081 20.237 244.154 20.5024 244.264 20.436C244.374 20.3697 244.558 20.9005 244.521 20.9668C244.484 21.0332 244.301 21.2986 244.411 21.2322C244.521 21.1659 245.474 20.9668 245.658 20.9005C245.804 20.7678 245.621 20.7014 245.401 20.7678L245.218 20.9005L245.181 20.9668C245.108 20.9668 245.071 20.9668 245.071 20.9005C245.071 20.8341 245.071 20.7014 244.998 20.7014C244.924 20.8341 244.888 20.9668 244.814 21.0995L244.778 21.1659C244.814 21.2986 244.961 21.4313 245.071 21.4976C245.181 21.564 245.364 21.1659 245.401 21.1659C245.438 21.0995 245.511 21.1659 245.548 21.4313L245.731 21.2986L245.841 21.2322C245.621 21.1659 245.254 21.0995 245.071 20.9668C244.888 20.9005 244.888 20.5687 244.961 20.5024C244.998 20.436 245.144 20.1706 245.144 20.1706C245.181 20.3033 245.181 20.5024 245.218 20.5687L245.364 20.7014C245.364 20.5024 245.401 20.3033 245.438 20.237C245.474 20.1706 245.914 20.3033 246.207 20.436L246.501 20.1706L246.611 20.1043C246.611 20.237 246.611 20.436 246.647 20.436C246.684 20.5024 246.831 20.5687 246.831 20.5024C246.831 20.3697 246.977 20.237 247.087 20.3033C247.197 20.3697 247.124 20.9005 247.161 20.9668C247.234 21.0332 247.564 21.0995 247.857 20.9005L248.114 20.7678H248.15C248.224 20.9005 248.334 21.0332 248.334 20.9668C248.37 20.9005 248.444 20.8341 248.444 20.7678L248.334 20.6351C248.224 20.5024 248.077 20.436 248.004 20.436H247.931C247.894 20.436 247.857 20.436 247.821 20.436C247.601 20.237 247.637 20.5024 247.637 20.7014V20.7678C247.601 20.8341 247.601 20.7678 247.601 20.6351C247.601 20.5024 247.381 20.5024 247.344 20.436V20.3697C247.344 20.3033 247.417 20.237 247.454 20.237C247.564 20.3033 247.674 19.9716 247.821 20.237C247.967 20.1043 248.114 20.0379 248.114 20.1706L248.15 20.237H248.187C248.26 20.1706 248.37 20.1043 248.444 20.0379C248.517 19.9716 248.737 19.8389 248.737 19.9716C248.774 20.1043 248.847 20.3697 248.884 20.3033H248.92L249.104 20.237C249.324 20.1043 249.58 20.1043 249.69 20.1706C249.69 20.436 249.764 20.7014 249.617 20.9005C249.617 20.9005 249.617 21.0332 249.654 21.0995C249.69 21.0995 249.764 21.0995 249.764 21.0995C249.8 20.9668 249.837 20.8341 249.91 20.7678L249.947 20.7014C249.984 20.6351 250.02 20.6351 250.057 20.7014C250.057 20.7678 250.167 21.0332 250.204 21.0332C250.24 21.0332 250.387 21.0332 250.424 21.0995C250.46 21.1659 250.57 21.2322 250.607 21.2322C250.607 21.1659 250.68 21.0995 250.717 21.1659C250.753 21.2322 250.973 21.3649 251.047 21.1659L251.157 21.0332C251.23 21.1659 251.267 21.2986 251.23 21.3649C251.193 21.4313 251.12 21.6303 251.193 21.6303C251.267 21.6303 251.413 21.763 251.377 21.8294C251.34 21.8957 251.34 22.1611 251.413 22.2275C251.487 22.2938 251.56 22.4265 251.377 22.5592L251.23 22.6919C251.193 22.7583 251.12 22.8246 251.12 22.891C251.12 22.9573 251.12 23.09 251.12 23.1564C251.157 23.2227 251.23 23.2228 251.303 23.2228L251.413 23.1564C251.413 23.0237 251.45 22.8246 251.487 22.7583H251.523C251.633 22.6919 252 22.891 252 23.09V23.1564C251.927 23.2227 251.817 23.3554 251.743 23.4218C251.67 23.4882 251.487 23.8199 251.487 23.8199C251.487 23.8863 251.413 23.8863 251.377 23.6872H251.267C251.157 23.8199 251.157 23.9526 251.193 24.019C251.23 24.0853 251.413 24.5498 251.413 24.8815V25.6114C251.193 25.8104 251.01 25.9431 251.01 25.8768C251.01 25.8104 250.937 25.6777 250.9 25.7441C250.863 25.8104 250.863 26.1422 250.827 26.1422C250.79 26.1422 250.643 26.2749 250.717 26.4076H250.753C250.827 26.4076 250.937 26.2749 251.01 26.2749C251.083 26.2749 251.193 26.2085 251.193 26.4076C251.193 26.5403 251.157 26.673 251.12 26.673L250.973 26.7393C250.827 26.8057 250.68 26.6066 250.717 26.2749L250.46 26.3412L250.277 26.4076C250.35 26.673 250.35 26.872 250.277 26.872C250.204 26.872 249.947 26.872 249.947 26.7393C249.947 26.673 249.874 26.5403 249.8 26.6066C249.727 26.7393 249.544 27.0047 249.544 26.872C249.544 26.8057 249.47 26.5403 249.434 26.6066C249.397 26.673 249.104 26.872 248.92 26.872L248.627 27.1374C248.48 27.1374 248.26 27.1374 248.114 27.1374H247.931C247.894 27.1374 247.711 27.1374 247.564 27.0711C247.417 27.0047 246.977 27.2038 246.941 27.1374C246.904 27.1374 246.721 27.0711 246.647 27.0711C246.574 27.0711 246.317 27.0711 246.244 27.0047C246.171 26.9384 245.877 27.2701 245.767 27.3365L245.731 27.0047V26.872C245.621 26.9384 245.511 27.0047 245.438 27.0711C245.364 27.1374 245.254 27.2701 245.218 27.2038C245.181 27.1374 244.888 27.2038 244.814 27.2701C244.741 27.2701 244.484 27.2038 244.448 27.2038C244.411 27.2038 244.264 27.3365 244.228 27.4028C244.191 27.4692 244.044 27.3365 244.008 27.3365C243.971 27.3365 243.751 27.4028 243.641 27.4692C243.494 27.6019 243.055 27.2701 242.908 27.2701C242.761 27.2701 242.395 27.6019 242.358 27.6019C242.285 27.6019 242.065 27.6019 241.991 27.7346L241.808 27.5355C241.735 27.4692 241.551 27.6019 241.441 27.6019C241.331 27.6019 241.221 27.5355 241.111 27.5355C241.038 27.5355 240.965 27.6019 240.855 27.6019L240.672 27.6682C240.672 27.4692 240.672 27.4028 240.672 27.5355C240.672 27.6683 240.378 27.5355 240.268 27.6019H240.158L239.755 27.5355C239.315 27.4692 238.838 27.4692 238.655 27.4692C238.508 27.4692 238.069 27.6682 238.032 27.6682C237.995 27.6682 237.849 27.7346 237.702 27.7346L237.665 27.6682C237.555 27.4692 237.409 27.6682 237.299 27.6019L237.152 27.4692C237.005 27.4692 236.822 27.4692 236.712 27.4692C236.639 27.4692 236.309 27.6682 236.089 27.7346L235.905 27.6019L235.796 27.5355C235.612 27.6019 235.429 27.6019 235.356 27.6019C235.282 27.5355 235.136 27.6682 235.099 27.6019C235.062 27.5355 234.916 27.4028 234.842 27.4692C234.769 27.5355 234.476 27.7346 234.402 27.7346C234.329 27.7346 234.109 27.6682 234.072 27.6019C233.999 27.5355 233.669 27.7346 233.449 27.8009C233.229 27.8673 232.679 27.6682 232.643 27.7346C232.606 27.8009 232.423 27.6019 232.349 27.6019C232.313 27.6019 232.166 27.6682 232.166 27.6019C232.129 27.5355 232.093 27.4692 232.056 27.5355C232.056 27.6019 231.909 27.6682 231.836 27.6019C231.726 27.5355 231.433 27.7346 231.359 27.7346L231.323 27.6682C231.139 27.4692 231.029 27.4692 230.846 27.6682C230.7 27.8009 230.553 27.4692 230.443 27.5355C230.296 27.6683 230.15 27.7346 230.04 27.6682C229.93 27.6019 229.893 27.6019 229.82 27.6682C229.783 27.6682 229.636 27.6019 229.636 27.6019C229.563 27.801 229.49 27.5355 229.416 27.6019C229.343 27.7346 229.343 27.6682 229.27 27.6019L229.16 27.4692C229.013 27.5355 228.683 27.6019 228.426 27.6682C228.17 27.7346 227.327 27.6682 227.217 27.7346H226.813C226.52 27.7346 226.19 27.8009 226.117 27.8673C226.043 27.9337 225.677 27.8009 225.53 27.7346H225.384C225.237 27.7346 225.054 27.7346 224.87 27.7346H70.232C70.1953 27.6019 70.1587 27.5355 70.122 27.5355C70.122 27.5355 70.012 27.6019 69.9754 27.6682C69.9387 27.7346 69.7554 27.8673 69.7187 27.8009C69.6821 27.7346 69.3154 27.8673 69.0588 27.8673C68.8022 27.8673 68.0689 27.7346 67.9956 27.7346C67.9223 27.7346 67.629 27.8673 67.5557 27.7346C67.4824 27.6682 67.1891 27.8673 67.0791 27.8673C67.0058 27.8673 66.6758 27.9337 66.5658 27.9337C66.4558 27.9337 66.1259 27.8009 66.0525 27.8009C65.9792 27.8673 65.6859 27.8673 65.6126 27.8009C65.5393 27.7346 65.136 27.8673 64.9893 27.8009L64.8427 27.7346L64.7327 27.6682C64.5127 27.7346 64.1461 27.8673 63.8895 27.8673C63.6329 27.8673 62.753 27.9337 62.5697 27.9337L62.4963 27.5355C62.3497 27.5355 62.2764 27.6019 62.2764 27.6682C62.2764 27.7346 62.2764 27.8673 62.2031 27.8673C62.1297 27.8673 61.7998 27.9336 61.6898 28L61.4698 27.8009C61.4332 27.7346 61.3598 27.6019 61.2865 27.6019C61.2499 27.6682 61.2132 27.8009 61.2132 27.8009L60.8099 27.6682C60.37 27.8009 60.0034 27.8009 60.0034 27.7346C60.0034 27.6682 59.8934 27.4028 59.82 27.4692H59.7467C59.5634 27.4692 59.6367 27.6682 59.5634 27.7346C59.4901 27.8009 59.4168 27.7346 59.3434 27.8009C59.2701 27.8009 59.1601 27.8673 59.0868 27.9337H59.0501C58.9768 27.8673 58.8668 27.8673 58.7935 27.8009C58.7202 27.7346 58.5002 27.8673 58.4269 27.8673C58.3902 27.9337 58.1336 27.8009 58.0603 27.8673C57.9869 27.9337 57.5837 27.9336 57.3637 28L57.1804 27.7346C57.1437 27.6682 56.9971 27.6682 56.9604 27.7346L56.7771 27.9337C56.5938 27.8673 56.3738 27.7346 56.2638 27.7346V27.8009C56.1539 28.1327 56.0072 27.7346 55.8972 27.8673L55.7872 28C55.6773 27.8673 55.4206 27.7346 55.2373 27.6682L55.0907 27.8673L54.9807 28C54.9074 27.8009 54.7241 27.6682 54.6141 27.7346L54.5774 27.8009C54.5041 28 54.4308 27.7346 54.3574 27.8009H54.3208C54.2841 27.8009 54.1375 27.8009 53.9908 27.7346C53.8442 27.6682 53.0376 27.8673 53.0009 27.8673C52.891 27.7346 52.781 27.6019 52.671 27.8009C52.5243 28 52.5243 27.6682 52.3777 27.7346L52.2677 27.8009C52.1211 27.7346 51.8278 27.6682 51.5711 27.7346H51.3512C51.2045 27.7346 51.0212 27.8009 50.9846 27.6682L50.8746 27.4028C50.7646 27.5355 50.6546 27.6019 50.6179 27.6019C50.5813 27.6019 50.4346 27.6019 50.3246 27.6019H50.2146C50.1413 27.6019 50.0313 27.6682 49.958 27.7346C49.9214 27.6682 49.8847 27.5355 49.848 27.4692C49.8114 27.4028 49.7014 27.6019 49.6647 27.7346H49.4448C49.2981 27.7346 49.0781 27.8009 48.9315 27.8009L48.6382 27.6682C48.4915 27.6682 48.3449 27.6019 48.3082 27.5355C48.3082 27.4692 48.2716 27.2701 48.2716 27.2701C48.2716 27.2701 48.2349 27.3365 48.2349 27.4028C48.2349 27.4692 48.1249 27.7346 48.0516 27.6682L48.0149 27.6019C47.8683 27.3365 47.8683 27.3365 47.685 27.6019H47.6483C47.6117 27.6019 47.465 27.6682 47.2817 27.6682C47.0984 27.6682 46.6218 27.4028 46.5485 27.4692C46.4752 27.5355 46.3652 27.4028 46.4385 27.3365C46.4751 27.2701 46.5851 27.0047 46.4752 27.0711C46.3652 27.1374 46.1452 27.4028 46.1085 27.4692H46.0719C45.9985 27.4692 45.9252 27.4028 45.8519 27.4028C45.7786 27.4028 45.7053 27.4692 45.6686 27.4692C45.5953 27.4692 45.4853 27.4692 45.412 27.4692L45.192 27.2701C44.9354 27.3365 44.6787 27.4692 44.6054 27.4692L44.5321 27.4028C44.4221 27.3365 44.1655 27.2701 44.0555 27.3365L43.8355 27.4692C43.6522 27.3365 43.4689 27.2701 43.4322 27.3365C43.3956 27.4028 42.919 27.3365 42.6257 27.3365H42.1857C41.9657 27.3365 41.6358 27.4028 41.4525 27.4692L41.2692 27.4028C41.1592 27.3365 40.9026 27.2038 40.8292 27.1374C40.7926 27.0711 40.6826 27.1374 40.6826 27.1374C40.6459 27.4028 40.5726 27.4692 40.426 27.2701C40.426 27.2701 40.2426 27.3365 40.0593 27.4028L39.9127 27.3365C39.7294 27.2701 39.5827 27.2038 39.4361 27.4028C39.3994 27.4692 39.2894 27.4028 39.2161 27.3365H39.1428C39.0695 27.2701 38.9595 27.3365 38.9228 27.4028C38.8495 27.4692 38.5195 27.3365 38.4462 27.3365C38.3729 27.3365 37.9696 27.3365 37.7863 27.4028L37.6397 27.2038C37.6397 27.2038 37.603 27.2701 37.5663 27.2701L37.1631 27.4028C36.9431 27.3365 36.7231 27.2701 36.6865 27.2038C36.6498 27.2038 36.3565 27.2701 36.0999 27.2701L35.8432 27.3365H35.8066C35.7699 27.2038 35.6966 27.1374 35.6966 27.2038C35.6966 27.3365 35.2566 27.4028 35 27.4028L34.8534 27.2701C34.78 27.3365 34.6334 27.3365 34.4867 27.3365L34.3401 27.2701C34.2301 27.2038 34.1568 27.6019 34.0101 27.3365C33.9735 27.2701 33.9002 27.3365 33.8635 27.3365C33.8268 27.3365 33.7902 27.4028 33.7535 27.3365H33.6802C33.6069 27.3365 33.4602 27.3365 33.3502 27.4028L33.2769 27.2701C33.1669 27.0047 33.0936 27.4028 32.947 27.2701C32.8003 27.1374 32.8736 26.872 32.8003 26.7393C32.7636 26.673 32.6537 26.673 32.5803 26.7393L32.4703 26.8057C32.3604 26.9384 32.287 27.0711 32.3237 27.1374C32.3604 27.1374 32.3237 27.2701 32.2137 27.2701L32.1037 27.2038C32.0304 27.2038 31.9571 27.1374 31.8838 27.1374H31.6638C31.5171 26.872 31.4072 26.7393 31.4072 26.872C31.4072 26.9384 31.2972 27.3365 31.1505 27.3365C31.0039 27.3365 30.7106 27.0711 30.7106 27.0711L30.6373 27.2038C30.6006 27.2038 30.4539 27.2701 30.3073 27.2701C30.1607 27.2701 29.7574 27.1374 29.7207 27.0711C29.6841 27.0047 29.5374 27.0047 29.5374 27.0711C29.5374 27.1374 29.3174 27.2038 29.3174 27.1374C29.3174 27.1374 29.2808 26.9384 29.2441 26.7393L29.0241 26.9384C28.9142 27.0711 28.8042 27.0711 28.6942 27.1374H28.6209C28.5109 27.1374 28.4375 27.0047 28.4375 26.872V26.7393C28.4375 26.6066 28.4375 26.4739 28.3276 26.4739C28.1809 26.4739 28.2542 26.673 28.2542 26.7393V26.8057C28.2176 26.872 28.1809 26.872 28.1443 26.8057C28.1076 26.7393 27.9609 26.673 27.8876 26.8057V27.0047C27.851 27.0711 27.8143 27.0711 27.7776 27.0711H27.741C27.7043 27.0047 27.6677 26.872 27.631 26.7393C27.5943 26.6066 27.411 26.5403 27.4477 26.6066C27.4843 26.673 27.4477 26.9384 27.2277 27.1374L27.0444 26.872L26.9711 26.7393C26.8978 26.8057 26.7878 26.872 26.7144 26.9384C26.6411 27.0047 26.3112 26.7393 26.2745 26.7393H26.2012C26.1645 26.7393 26.1645 26.8057 26.1645 26.872C26.1645 26.872 26.0545 27.0711 25.8346 27.1374L25.7246 27.0047L25.5413 26.872C25.358 26.9384 25.248 26.9384 25.248 26.872C25.2846 26.8057 25.1747 26.4076 24.9547 26.2085L24.698 26.4739L24.5147 26.6066C24.2581 26.4739 24.0748 26.3412 24.1481 26.3412L24.2214 26.0758C24.4048 26.1422 24.5514 26.2085 24.5881 26.2085C24.6247 26.2085 24.6247 25.9431 24.4414 26.0095V25.9431L24.2214 25.6777C24.1481 25.9431 24.1115 26.0758 24.0748 26.0095C24.0748 25.9431 24.0015 25.8104 23.9648 25.8104C23.9282 25.8104 23.7815 25.9431 23.7815 26.0095C23.7815 26.0758 23.6349 26.2749 23.5615 26.3412C23.4882 26.4739 23.3416 27.0047 23.3416 26.872C23.3416 26.7393 23.2316 26.4739 23.1949 26.4739C23.1216 26.4739 22.9383 26.4076 22.9016 26.4076C22.865 26.4076 22.755 26.4739 22.8283 26.4739C22.865 26.5403 23.0116 26.673 23.0483 26.7393V26.8057C23.0483 26.8057 23.0116 26.872 22.9749 26.872L22.865 26.8057C22.7183 26.7393 22.645 26.6066 22.645 26.4739C22.645 26.3412 22.6083 26.1422 22.535 26.2085C22.4617 26.2749 22.425 26.6066 22.3884 26.673C22.3517 26.7393 22.1317 26.7393 22.1317 26.7393C22.0951 26.7393 22.0584 26.4739 22.1317 26.2749C22.205 26.0758 22.2417 25.6114 22.1317 25.8104C22.0217 26.0095 21.7284 26.4739 21.6551 26.4076C21.5818 26.3412 21.4351 26.6066 21.4351 26.673C21.3985 26.7393 21.1419 26.8057 21.1052 26.673C21.0685 26.5403 21.3985 26.3412 21.4718 26.2749C21.5451 26.2085 21.8018 26.0758 21.8018 26.0095C21.8384 25.9431 21.8384 25.7441 21.8384 25.6777C21.8018 25.6777 21.7284 25.6777 21.6918 25.6777L21.6185 25.8104C21.5451 25.9431 21.4718 26.0758 21.4718 26.0758C21.4351 26.0758 21.3985 26.0095 21.3618 25.8768C21.3618 25.8104 21.2518 25.545 21.2152 25.4787C21.1785 25.4123 21.0685 25.2133 21.0319 25.2796C20.9952 25.2796 20.8852 25.4787 20.8119 25.6114H21.0685C21.1419 25.8104 21.2152 26.0095 21.2152 26.0095C21.2152 26.0095 21.1419 26.1422 21.0685 26.1422H20.9219C20.8486 26.1422 20.7752 26.2085 20.7752 26.2749C20.7386 26.2749 20.6286 26.2085 20.5919 26.2749C20.5553 26.3412 20.4453 26.3412 20.4086 26.2749C20.372 26.1422 20.1886 25.9431 20.0787 26.0758L19.932 26.2085C19.8587 26.1422 19.7487 26.0095 19.6387 25.8768L19.4921 25.6114C19.3821 25.6777 19.2354 25.8104 19.1988 25.8768L19.0888 26.0758C19.0155 26.2749 18.9055 26.3412 18.7955 26.2749C18.6855 26.2085 18.5022 25.9431 18.4289 25.9431C18.3556 25.8768 18.1722 25.8768 18.2089 26.0095L18.1722 26.0758C18.1356 26.1422 18.0256 26.2085 17.9889 26.2749C18.0256 26.3412 18.0256 26.4739 17.9889 26.4739C17.9523 26.4739 17.879 26.4076 17.8423 26.3412C17.8056 26.2749 17.549 25.9431 17.329 26.0095L17.3657 26.4076C17.3657 26.5403 17.1457 26.6066 17.1091 26.4739C17.0724 26.3412 17.0724 26.2749 17.1824 26.2085C17.219 26.2085 17.2924 26.0758 17.2557 26.0095L17.219 25.8104C17.1824 25.9431 17.0357 26.0095 16.9257 25.9431C16.8158 25.9431 16.4858 26.1422 16.4125 26.0758H16.3758C16.3392 26.0758 16.2292 26.0095 16.1925 26.0758L16.0459 26.2085C15.8992 26.1422 15.7159 26.0095 15.7159 26.0095C15.6792 26.0095 15.5326 26.0095 15.386 26.0758L15.276 25.9431L15.2393 25.8768C15.166 25.8104 15.0927 25.8768 15.0927 26.0095C15.0927 26.0758 14.946 26.4076 14.7994 26.4076C14.6527 26.4076 14.3228 26.3412 14.2861 26.4076V26.4739L14.2494 26.5403C14.2128 26.6066 14.2128 26.6066 14.1761 26.5403V26.4739L14.1395 26.6066C14.1028 26.5403 13.9561 26.5403 13.8095 26.673L13.6995 26.4739C13.6262 26.6066 13.5162 26.673 13.4429 26.6066C13.3696 26.5403 13.1862 26.6066 13.0763 26.6066C12.9663 26.5403 12.673 26.7393 12.5997 26.8057C12.5263 26.8057 12.2697 26.7393 12.1597 26.8057L12.0497 26.6066L11.9397 26.4739C11.7931 26.5403 11.5731 26.673 11.4265 26.673L11.2065 26.8057C11.0965 26.7393 10.9499 26.5403 10.8766 26.4739L10.7666 26.673C10.6932 26.872 10.6199 26.6066 10.5466 26.6066C10.4733 26.6066 10.3266 26.7393 10.29 26.7393C10.1433 26.6066 10.0333 26.6066 9.88669 26.6066C9.70338 26.6066 9.52007 26.4739 9.37342 26.7393C9.33676 26.7393 9.22677 26.673 9.15345 26.6066C9.08013 26.5403 8.75017 26.4739 8.60352 26.6066L8.45688 26.5403C8.20024 26.4739 7.90695 26.3412 7.65032 26.2085C7.57699 26.2085 7.57699 26.0095 7.50367 25.9431C7.46701 25.8768 7.43035 25.8104 7.39368 25.8104C7.32036 25.8104 7.24704 25.8768 7.21038 25.8768H7.17371C7.13705 25.7441 7.06373 25.6114 6.95374 25.545C6.84376 25.4787 6.58713 25.545 6.5138 25.6114L6.44048 25.545C6.29383 25.4123 6.14718 25.346 5.85389 25.346C5.81723 25.346 5.78057 25.2133 5.78057 25.1469C5.85389 25.0142 5.96387 24.9479 5.7439 24.8815C5.63392 24.8815 5.67058 24.6825 5.7439 24.6161L5.78057 24.5498C5.81723 24.4834 5.81723 24.3507 5.78057 24.2844C5.7439 24.218 5.89055 24.0853 5.92721 24.1517C5.96388 24.218 6.18385 24.0853 6.22051 24.218L6.25717 24.2844C6.29383 24.3507 6.25717 24.4171 6.25717 24.4834C6.25717 24.5498 6.33049 24.5498 6.36715 24.6161H6.40382C6.44048 24.6161 6.5138 24.4834 6.58712 24.3507C6.66045 24.218 6.77043 23.7536 6.73377 23.6872C6.69711 23.5545 6.40382 23.6872 6.33049 23.6209V23.5545L6.29383 23.3554C6.22051 23.1564 6.14718 23.09 6.11052 23.2228C6.07386 23.2891 6.0372 23.6872 5.96388 23.5545C5.89055 23.4218 5.52393 23.2227 5.45061 23.1564C5.37729 23.09 5.5606 22.7583 5.63392 22.891C5.70724 22.9573 5.92721 23.1564 5.96388 23.1564C6.00054 23.09 6.07386 22.891 6.11052 22.7583L6.25717 22.891C6.29383 22.9573 6.40382 22.9573 6.40382 22.891C6.44048 22.7583 6.44048 22.6919 6.33049 22.6256L6.25717 22.5592C6.18385 22.3602 6.18385 22.1611 6.25717 22.0948L6.33049 21.9621C6.33049 21.8294 6.25717 21.763 6.22051 21.6967C6.18385 21.6967 5.96387 21.4976 5.78057 21.4313L5.67058 22.0284C5.48727 21.9621 5.37729 21.8294 5.45061 21.763C5.52393 21.6967 5.59726 21.6303 5.59726 21.564C5.5606 21.564 5.45061 21.3649 5.37729 21.2322L5.23064 21.0995C5.15731 21.1659 5.01067 21.0995 4.93734 21.0332H4.86402C4.75404 21.0332 4.68071 21.0332 4.57073 21.0332C4.38742 21.0332 4.24077 20.9668 4.05746 21.0332C3.91081 21.0995 3.80083 20.9005 3.61752 20.9668C3.5442 20.9668 3.43421 20.9005 3.36089 20.8341L3.2509 20.7014C3.10426 20.7014 2.88428 20.6351 2.70098 20.6351C2.59099 20.5687 2.04106 20.1706 1.85775 20.0379L1.67445 19.9716H1.56446C1.41781 19.9716 1.2345 19.9052 1.16118 19.8389L0.794562 19.5071C0.831224 19.1754 0.904548 18.8436 0.94121 18.7109L0.721239 18.7773C0.611254 18.7773 0.53793 18.7109 0.574592 18.5782V18.4455C0.611254 18.3128 0.574592 18.1801 0.53793 18.1137C0.501268 18.0474 0.427945 17.8483 0.464606 17.8483C0.501268 17.782 0.684577 17.5829 0.721239 17.5166L0.611254 17.4502C0.501268 17.3839 0.464606 17.3175 0.501268 17.1848L0.574592 16.9858C0.501268 16.9194 0.354621 16.455 0.281297 15.9905L0.0613268 15.5924C0.13465 15.327 0.171312 15.128 0.0979885 15.128C0.0613268 15.128 -0.0486586 14.9953 0.024665 14.9289C0.0979885 14.7962 0.024665 14.4645 0.0613268 14.4645C0.0979885 14.4645 0.244636 14.1991 0.207974 14.0664L0.171312 13.9337C0.13465 13.7346 0.0613268 13.6019 0.0979885 13.4028C0.0979885 13.2701 0.207974 13.0711 0.281297 12.9384C0.354621 12.673 0.53793 12.7393 0.574592 12.673L0.647915 12.4739C0.757901 12.4739 0.867886 12.5403 0.904548 12.5403C0.94121 12.5403 1.19784 12.1422 1.27117 12.1422C1.34449 12.1422 1.60112 12.0095 1.67445 12.0095L1.78443 11.9431C1.85775 11.9431 2.0044 12.0758 2.07772 12.0095C2.18771 11.9431 2.22437 11.9431 2.33436 12.0095C2.40768 12.0758 2.51767 12.0095 2.59099 12.0095L2.81096 11.8104C2.7743 12.0095 2.95761 11.9431 3.14092 11.6777L3.43421 11.7441H3.47087C3.5442 11.6777 3.61752 11.6777 3.65418 11.6777C3.69084 11.6777 3.94748 11.6777 4.13078 11.4787L4.38742 11.6777C4.46074 11.7441 4.68071 11.545 4.71737 11.6114L4.86402 11.8104C4.97401 11.6777 5.15732 11.4787 5.2673 11.4123L5.37729 11.346C5.48727 11.2796 5.63392 11.2796 5.7439 11.346C5.92721 11.4123 6.11052 11.4787 6.29383 11.2796L6.44048 11.1469C6.62379 11.1469 6.8071 11.1469 6.84376 11.2133L6.91708 11.346C6.95374 11.4787 7.06373 11.4123 7.13705 11.2796C7.21038 11.1469 7.61366 11.2796 7.7603 11.2796C7.90695 11.2796 8.31023 11.0142 8.42021 10.9479H8.5302C8.75017 10.9479 8.86016 10.9479 8.97014 10.8815C9.0068 10.8815 9.04346 10.8152 9.08013 10.8152H9.15345C9.22677 10.7488 9.37342 10.6825 9.44674 10.6161H9.59339C9.66672 10.7488 9.70338 10.6825 9.70338 10.4834L9.88669 10.5498C9.99667 10.5498 10.1433 10.6161 10.2533 10.4834H10.3266C10.3266 10.6161 10.3266 10.7488 10.4366 10.6825C10.4733 10.6825 10.5099 10.4834 10.5466 10.4171C10.6566 10.3507 10.8032 10.2844 10.9499 10.218H11.0965C11.2798 10.2844 11.4631 10.218 11.5365 10.218C11.6098 10.1517 11.8664 10.0853 11.9031 10.1517C11.9764 10.1517 12.1964 10.1517 12.1964 10.1517C12.233 10.0853 12.343 10.019 12.343 10.0853C12.343 10.1517 12.453 10.218 12.5263 10.218C12.5997 10.1517 12.8196 10.0853 12.893 10.1517C12.9296 10.218 13.1129 10.3507 13.1496 10.3507C13.1862 10.2844 13.2962 10.0853 13.3329 10.019C13.3696 9.95261 13.6262 9.95261 13.6995 9.95261H13.8828C13.9928 9.95261 14.2128 9.95261 14.3594 10.019H14.4694C14.5061 10.019 14.5427 10.019 14.5794 9.95261L14.836 9.68721C14.9827 9.88626 15.1293 9.95261 15.1293 9.88626C15.1293 9.81991 15.2026 9.62085 15.276 9.68721H15.386C15.4593 9.68721 15.5693 9.5545 15.6426 9.4218H15.8259C15.8992 9.2891 15.8626 9.1564 15.8259 9.0237H15.7526C15.6426 8.95735 15.6426 9.09005 15.6059 9.22275C15.6059 9.2891 15.4959 9.2891 15.4226 9.2891C15.276 9.35545 15.1293 9.4218 15.056 9.35545C14.9094 9.22275 14.7627 9.2891 14.6161 9.2891C14.4694 9.2891 14.3228 9.2891 14.1761 9.2891C14.0295 9.2891 13.8828 9.2891 13.7362 9.2891C13.5162 9.35545 13.4429 9.09005 13.3329 8.891L13.2229 8.69194C13.0763 8.69194 12.9296 8.7583 12.8563 8.7583C12.783 8.82465 12.673 8.82465 12.5997 8.82465C12.5263 8.82465 12.3797 8.62559 12.3064 8.55924C12.2697 8.49289 12.0131 8.36019 11.9764 8.42654L11.9397 8.49289C11.9031 8.62559 11.9031 8.62559 12.0497 8.62559C12.0864 8.62559 12.1231 8.62559 12.1231 8.62559C12.1231 8.69194 12.1231 8.82465 12.0864 8.82465C11.9764 8.82465 11.8298 8.95735 11.8298 8.69194V8.55924C11.8664 8.36019 11.8664 8.22749 11.9031 8.16114C11.9031 8.09479 11.9031 8.02844 11.8664 8.02844H11.8298C11.7931 8.02844 11.7564 8.02844 11.6831 8.09479L11.4998 8.16114C11.5731 8.36019 11.5365 8.55924 11.4265 8.62559C11.3165 8.69194 10.9499 8.69194 10.9499 8.62559V8.42654C10.9865 8.29384 10.9499 8.22749 10.9132 8.22749C10.8766 8.22749 10.7299 8.09479 10.7299 7.82938H10.6932L10.4733 8.02844C10.5466 7.63033 10.6932 7.29858 10.7666 7.36493L10.8399 7.43128C10.9132 7.49763 10.9865 7.56398 11.0599 7.56398C11.0965 7.56398 11.1698 7.56398 11.2065 7.49763L11.2798 7.43128C11.3898 7.43128 11.5365 7.29858 11.6098 7.23223V7.09953C11.5365 7.03318 11.3898 6.90048 11.3165 6.90048L11.2432 6.96683C11.2065 7.03318 11.2432 7.23223 11.1332 7.16588L11.0232 7.09953C10.9499 6.96683 10.8399 6.96683 10.8032 7.09953C10.7666 7.23223 10.5466 7.09953 10.5833 7.03318C10.5833 6.96683 10.5833 6.90048 10.5466 6.90048C10.5099 6.90048 10.3633 6.96683 10.3633 7.03318C10.3633 7.09953 10.29 7.29858 10.2533 7.29858C10.2166 7.23223 10.2533 7.16588 10.2166 7.09953L10.1067 6.90048C9.92335 6.90048 9.7767 6.90048 9.74004 6.90048C9.70338 6.90048 9.66672 6.63507 9.81336 6.36967L9.99667 6.50237L10.1433 6.63507C10.29 6.63507 10.4366 6.50237 10.4366 6.36967C10.4366 6.23697 10.4 5.90521 10.3633 5.90521C10.3266 5.90521 10.18 5.97156 10.2166 6.03792V6.17062C10.2166 6.23697 10.1067 6.30332 10.0333 6.30332C9.96001 6.23697 9.81336 6.10427 9.88669 6.03792V5.97156C9.88669 5.90521 9.81336 5.77251 9.7767 5.70616C9.7767 5.70616 9.66671 5.77251 9.63005 5.77251C9.59339 5.77251 9.52007 5.70616 9.48341 5.63981C9.48341 5.63981 9.52007 5.50711 9.55673 5.50711C9.59339 5.50711 9.74004 5.57346 9.88669 5.63981C10.0333 5.70616 10.5099 5.44076 10.5466 5.50711H10.5833C10.6199 5.50711 10.6932 5.44076 10.7299 5.37441V5.24171C10.6932 5.17536 10.7299 5.17536 10.7666 5.109C10.8032 5.04265 10.9499 5.04265 10.9865 5.04265C11.0232 5.10901 11.1332 5.17536 11.1698 5.109C11.2065 5.04265 11.3532 5.04265 11.3898 5.17536C11.4265 5.30806 11.5731 5.63981 11.6098 5.63981C11.6098 5.63981 11.6098 5.44076 11.5731 5.17536V4.8436C11.6831 4.7109 11.7564 4.7109 11.7931 4.7109V4.77725L11.8298 4.90995C11.8664 5.10901 11.9397 5.04265 12.0131 4.77725L12.1231 4.7109L12.233 4.5782C12.2697 4.37915 12.343 4.24645 12.3797 4.3128C12.4163 4.37915 12.5263 4.51185 12.6363 4.51185L12.783 4.64455C12.893 4.7109 13.0029 4.64455 13.0029 4.51185C13.0029 4.37915 13.0396 4.24645 13.0763 4.24645H13.1129C13.2229 4.3128 13.2962 4.4455 13.4062 4.4455C13.4429 4.4455 13.5162 4.1801 13.5529 4.1801H13.6629C13.7728 4.1801 13.8828 4.1801 13.9195 4.24645C13.9561 4.24645 14.0661 4.24645 14.0661 4.04739V3.91469L14.1028 3.78199C14.1395 3.64929 14.3594 3.58294 14.5794 3.71564L14.836 3.38389C14.9827 3.18483 15.0927 2.85308 15.3493 3.18483C15.4593 3.05213 15.6059 2.98578 15.6426 3.11848L15.7159 3.18483L15.7526 3.25118C15.7892 3.25118 15.8992 3.25118 15.9725 3.25118C16.0459 3.25118 16.2658 3.11848 16.3758 3.05213C16.4491 2.98578 16.8158 2.98578 16.9257 2.98578C17.0357 2.98578 17.2924 2.72038 17.3657 2.85308C17.439 2.91943 17.5857 3.25119 17.549 3.31754C17.549 3.38389 17.5857 3.64929 17.659 3.64929H17.879C17.9889 3.38389 18.0989 3.11848 18.1722 2.98578C18.2456 2.85308 18.4289 2.52133 18.4655 2.58768H18.5022L18.6855 2.72038C18.6489 2.85308 18.5755 3.05213 18.5389 3.11848L18.4655 3.25118C18.5022 3.31754 18.5389 3.45024 18.5755 3.38389C18.6122 3.38389 18.7588 3.18483 18.9055 2.98578L19.0888 3.18483L19.1255 3.25118C19.1621 3.31754 19.2721 3.18483 19.3088 3.05213C19.3454 2.91943 19.5654 2.52133 19.6387 2.58768H19.712L19.822 2.65403C19.932 2.78673 20.0787 2.85308 20.1153 2.91943C20.1886 2.91943 20.152 3.25119 20.1886 3.31754C20.2253 3.38389 20.2986 3.38389 20.3353 3.45024C20.3353 3.51659 20.4819 3.45024 20.5186 3.31754C20.5186 3.18483 20.7752 3.25118 20.8486 3.25118C20.8852 3.25118 21.1052 3.11848 21.2885 3.18483H21.6185C21.8018 3.25118 21.9484 3.25119 21.9851 3.11848C22.0217 3.05213 21.8751 2.65403 21.9118 2.58768ZM246.097 5.77251C246.171 5.57346 246.134 5.37441 245.987 5.24171H245.841L245.658 5.17536C245.474 5.17536 245.364 5.24171 245.438 5.30806C245.511 5.37441 246.024 5.97156 246.097 5.77251ZM247.857 7.69668C247.894 7.63033 247.857 7.36493 247.784 7.09953H247.271C247.161 7.36493 247.124 7.69668 247.234 7.82938H247.271L247.381 7.76303C247.491 7.63033 247.601 7.56398 247.637 7.63033C247.674 7.76303 247.821 7.76303 247.857 7.69668ZM249.067 23.7536C249.104 23.7536 249.214 23.6209 249.287 23.4218C249.36 23.2227 249.14 22.7583 249.177 22.7583V22.6256C249.067 22.5592 248.957 22.5592 248.92 22.6256C248.884 22.6919 248.957 22.891 248.994 22.9573C249.03 23.0237 248.994 23.2891 249.03 23.4218C249.067 23.4882 249.03 23.7536 249.067 23.7536ZM13.6995 6.96683C13.6995 7.09953 13.6262 7.09953 13.5895 7.03318C13.5162 6.96683 13.5529 7.23223 13.7362 7.23223H13.8828L14.1395 7.29858C14.2494 7.03318 14.2494 6.90047 14.1761 6.96683C14.1028 7.03318 13.8462 6.90048 13.8462 6.83412C13.8462 6.76777 13.8095 6.56872 13.7728 6.56872C13.7362 6.56872 13.6995 6.83412 13.6995 6.96683ZM17.1824 3.64929C17.2557 3.45024 17.1457 3.31754 16.9624 3.31754L16.8524 3.11848C16.7791 3.18483 16.7058 3.31754 16.7058 3.38389C16.7058 3.45024 16.9257 3.64929 16.9991 3.71564C16.9991 3.91469 17.0357 3.98104 17.1457 3.78199L17.1824 3.64929ZM241.918 3.91469C241.918 3.78199 241.881 3.71564 241.845 3.84834C241.808 3.91469 241.698 4.04739 241.625 3.98104C241.551 3.91469 241.295 3.84834 241.331 3.91469C241.368 3.98104 241.368 4.04739 241.331 4.11374C241.295 4.1801 241.258 4.3128 241.441 4.24645L241.515 4.3128L241.625 4.37915C241.845 4.3128 241.955 4.04739 241.918 3.91469ZM249.14 20.8341C249.214 20.9005 249.287 20.9005 249.287 20.7678C249.324 20.6351 249.177 20.3033 249.14 20.237L249.067 20.3697L248.92 20.5687C248.774 20.5024 248.627 20.5024 248.59 20.5024V20.6351C248.664 20.7014 248.774 20.8341 248.847 20.9005H248.884C248.92 20.9668 249.104 20.7678 249.14 20.8341ZM15.056 3.91469C15.166 3.98104 15.276 3.98104 15.276 3.91469C15.276 3.84834 15.3126 3.64929 15.3126 3.58294C15.3493 3.51659 15.276 3.38389 15.166 3.51659L15.0927 3.38389C14.9827 3.25118 14.946 3.51659 14.8727 3.58294C14.7994 3.64929 14.7994 3.78199 14.8727 3.84834C14.9093 3.98104 14.946 4.11374 15.056 3.91469ZM239.755 18.4455C239.718 18.5119 239.755 18.5118 239.865 18.5118C239.975 18.5118 240.232 18.7773 240.342 18.7773C240.452 18.7773 240.488 18.3792 240.378 18.3792C240.195 18.3792 239.792 18.4455 239.755 18.4455ZM61.1399 26.8057C61.0665 26.7393 61.0299 26.8057 61.0299 26.872C61.0299 26.9384 60.9932 27.2038 60.9566 27.2038C60.9199 27.2038 60.8099 27.2038 60.8099 27.2701C60.8099 27.3365 60.8099 27.5355 60.8466 27.5355C60.8466 27.5355 61.0665 27.4692 61.3232 27.4028V27.1374C61.3232 27.0047 61.1765 26.8057 61.1399 26.8057ZM235.282 1.19431C235.356 1.26066 235.466 1.26066 235.539 1.06161L235.576 0.92891C235.576 0.862559 235.576 0.729858 235.539 0.663507C235.502 0.530806 235.429 0.530806 235.319 0.597156L235.246 0.663507C235.136 0.729858 235.246 1.12796 235.282 1.19431ZM233.229 1.19431C233.376 1.12796 233.449 0.995261 233.449 0.92891C233.412 0.862559 233.193 0.663507 233.156 0.729858C233.083 0.796209 233.119 1.26066 233.229 1.19431ZM250.277 21.8294C250.314 21.6967 250.24 21.6303 250.094 21.6967L249.984 21.763C249.91 21.8294 249.837 21.9621 249.947 22.0948L249.984 22.1611C250.02 22.2938 250.24 22.0284 250.277 21.8294ZM24.1115 2.65403C24.0015 2.72038 24.0381 2.85308 24.2214 2.91943L24.3314 2.98578C24.4414 3.05213 24.5147 2.91943 24.5514 2.78673C24.5881 2.72038 24.5881 2.65403 24.5514 2.58768C24.5514 2.52133 24.1848 2.45498 24.1481 2.45498L24.1115 2.65403ZM11.1332 5.97156C11.1332 5.90521 11.0599 5.77251 10.9865 5.77251C10.9132 5.77251 10.8032 5.83886 10.7299 5.90521C10.6566 6.03792 10.5466 6.43602 10.5466 6.50237H10.6199C10.6566 6.50237 10.8399 6.36967 11.0232 6.17062L11.1332 5.97156ZM23.2316 3.05213C23.2316 3.11848 23.2682 3.18483 23.3782 3.11848C23.4515 3.05213 23.6715 2.85308 23.7082 2.78673L23.6349 2.65403C23.5982 2.58768 23.6349 2.38863 23.4882 2.45498L23.3782 2.52133C23.3049 2.65403 23.2316 2.98578 23.2316 3.05213ZM58.1703 1.59242C58.2803 1.72512 58.2436 1.72512 58.1703 1.59242C58.0969 1.45972 57.877 1.19431 57.8403 1.26066C57.8036 1.39337 57.8403 1.72512 57.9869 1.79147L58.0236 1.72512L58.1703 1.59242ZM30.3806 2.78673C30.3806 2.85308 30.4539 2.85308 30.5273 2.72038C30.6006 2.58768 30.6006 2.18957 30.5273 2.25592C30.4173 2.32227 30.1973 2.38863 30.1973 2.45498C30.1973 2.52133 30.1973 2.58768 30.234 2.58768C30.2706 2.52133 30.3806 2.72038 30.3806 2.78673ZM43.3956 1.92417C43.1756 1.92417 43.0656 1.99052 43.1389 2.18957L43.2856 2.12322C43.4322 2.05687 43.5422 1.99052 43.6522 1.92417C43.6522 1.92417 43.6522 1.79147 43.6522 1.72512L43.5789 1.65877L43.3956 1.92417ZM9.74004 24.7488C9.7767 24.6161 9.81336 24.3507 9.7767 24.218L9.63005 24.2844C9.59339 24.2844 9.52007 24.4834 9.52007 24.3507C9.48341 24.1517 9.44674 24.0853 9.33676 24.218H9.3001C9.33676 24.3507 9.44674 24.5498 9.52007 24.6825L9.59339 24.7488H9.74004ZM238.215 17.5166C238.252 17.4502 238.178 17.3175 238.032 17.3175L237.885 17.4502C237.812 17.5829 237.812 17.782 237.849 17.9147H237.959C238.032 17.8483 238.215 17.6493 238.215 17.5166ZM225.42 1.12796C225.457 0.995261 225.457 0.92891 225.347 0.995261C225.237 1.06161 225.017 0.995261 224.98 1.06161V1.12796C224.98 1.26066 224.944 1.39337 225.054 1.39337H225.127C225.2 1.52607 225.384 1.26066 225.42 1.12796ZM239.975 4.11374C239.865 3.98104 239.865 3.91469 239.975 4.04739C240.085 4.1801 240.415 4.3128 240.452 4.3128C240.488 4.24645 240.452 4.04739 240.268 3.98104L240.195 4.04739L239.975 4.11374ZM227.803 1.39337C227.913 1.45972 227.987 1.52607 227.95 1.45972C227.95 1.39336 227.987 1.19431 227.987 1.19431C227.987 1.12796 227.95 0.995261 227.84 0.995261C227.73 0.92891 227.693 1.32701 227.803 1.39337ZM59.4901 1.45972C59.3801 1.45972 59.4168 1.59242 59.5267 1.79147L59.6367 1.85782H59.6734C59.82 1.65877 59.6001 1.45972 59.4901 1.45972ZM23.6715 24.9479C23.5615 24.9479 23.5249 25.0142 23.5249 25.1469C23.5615 25.2796 23.7082 25.4787 23.8182 25.4123C23.9282 25.346 23.7815 24.9479 23.6715 24.9479ZM240.708 19.9716C240.708 19.9716 240.671 20.1043 240.635 20.1706C240.562 20.237 240.562 20.5024 240.635 20.436L240.708 20.3697L240.818 20.3033C240.928 20.237 241.001 20.1043 240.928 20.0379L240.855 19.9716C240.818 19.9716 240.818 19.9052 240.781 19.9052H240.745C240.708 19.9052 240.708 19.9716 240.708 19.9716ZM239.278 17.782C239.388 17.782 239.462 17.7156 239.388 17.5829C239.315 17.5166 239.022 17.5829 238.948 17.5829C238.802 17.6493 239.132 17.782 239.278 17.782ZM55.4939 1.72512C55.6039 1.92417 55.7506 1.79147 55.8239 1.45972L55.6039 1.32701L55.5673 1.26066C55.4573 1.39337 55.384 1.52607 55.384 1.52607L55.4939 1.72512ZM19.7487 6.23697C19.712 6.30332 19.712 6.36967 19.7487 6.43602C19.7854 6.50237 20.0053 6.63507 20.0787 6.70142H20.152C20.1886 6.70142 20.2253 6.63507 20.2253 6.63507C20.2253 6.56872 20.2253 6.50237 20.2253 6.50237L20.1153 6.36967C20.0053 6.23697 19.822 6.17062 19.7487 6.23697ZM13.0029 7.23223C12.8563 6.96683 12.673 6.96683 12.4897 7.09953C12.7096 7.49763 12.7096 7.49763 13.0029 7.23223Z" fill="#292929"/>
</svg>
